PathFileType	4	(X/Y/Z)	S01_0011_Gait_markers.trc
DataRate	CameraRate	NumFrames	NumMarkers	Units	OrigDataRate	OrigDataStartFrame	OrigNumFrames
250.000000	250.000000	4	54	mm	250.000000	134	359
Frame#	Time	HEAD_ANT			R_HEAD			L_HEAD			C7			R_BACK			L_BACK			STERNUM			R_ACROMION			R_HUM_PROX			R_HUM_ANT			R_HUM_POST			R_ELBOW_LAT			R_ELBOW_MED			R_FOREARM			R_WIRST_LAT			R_WRITS_MED			R_HAND			L_ACROMION			L_HUM_PROX			L_HUM_ANT			L_HUM_POST			L_ELBOW_LAT			L_ELBOW_MED			L_FOREARM			L_WRIST_LAT			L_WIRST_MED			L_HAND			R_ILIAC			SACRUM			L_ILIAC			R_GTROCH			R_THIGH__1			R_THIGH_2			R_THIGH_3			R_THIGH_4			R_SHANK_1			R_SHANK_2			R_SHANK_3			R_SHANK_4			R_HEEL			R_FOOT_LAT			R_FOOT_MED			L_GTROCH			L_THIGH_1			L_THIGH_2			L_THIGH_3			L_THIGH_4			L_SHANK_1			L_SHANK_2			L_SHANK_3			L_SHANK_4			L_HEEL			L_FOOT_LAT			L_FOOT_MED			
		X1	Y1	Z1	X2	Y2	Z2	X3	Y3	Z3	X4	Y4	Z4	X5	Y5	Z5	X6	Y6	Z6	X7	Y7	Z7	X8	Y8	Z8	X9	Y9	Z9	X10	Y10	Z10	X11	Y11	Z11	X12	Y12	Z12	X13	Y13	Z13	X14	Y14	Z14	X15	Y15	Z15	X16	Y16	Z16	X17	Y17	Z17	X18	Y18	Z18	X19	Y19	Z19	X20	Y20	Z20	X21	Y21	Z21	X22	Y22	Z22	X23	Y23	Z23	X24	Y24	Z24	X25	Y25	Z25	X26	Y26	Z26	X27	Y27	Z27	X28	Y28	Z28	X29	Y29	Z29	X30	Y30	Z30	X31	Y31	Z31	X32	Y32	Z32	X33	Y33	Z33	X34	Y34	Z34	X35	Y35	Z35	X36	Y36	Z36	X37	Y37	Z37	X38	Y38	Z38	X39	Y39	Z39	X40	Y40	Z40	X41	Y41	Z41	X42	Y42	Z42	X43	Y43	Z43	X44	Y44	Z44	X45	Y45	Z45	X46	Y46	Z46	X47	Y47	Z47	X48	Y48	Z48	X49	Y49	Z49	X50	Y50	Z50	X51	Y51	Z51	X52	Y52	Z52	X53	Y53	Z53	X54	Y54	Z54	

135	0.536	840.7199096679688	1735.671020507812	-271.1858215332027	783.1926879882812	1680.333862304688	-196.4347686767574	782.0184326171875	1691.721069335938	-343.6806335449215	646.614013671875	1516.186279296875	-276.8349304199215	575.6926879882812	1319.811157226562	-208.7406921386716	568.2369995117188	1323.873413085938	-346.5381774902341	821.6695556640625	1352.8369140625	-291.0143127441403	730.31689453125	1463.878173828125	-111.591026306152	706.2662353515625	1302.1640625	-21.44692039489717	773.0170288085938	1220.341186523438	-29.98811149597141	654.0391235351562	1214.809936523438	-3.076808214187353	709.9691772460938	1111.101318359375	-7.169894218444577	672.3307495117188	1106.640991210938	-83.21260070800757	856.8607788085938	966.1351318359375	-51.03197860717752	903.0328979492188	921.8590698242188	-106.8851165771482	856.7056884765625	872.428466796875	-61.46823883056621	947.8562622070312	836.19580078125	-71.70363616943341	713.605224609375	1476.642211914062	-449.7793273925778	665.112060546875	1315.957397460938	-548.4088745117184	716.8621215820312	1228.781005859375	-558.8203124999998	593.9187622070312	1246.695190429688	-568.2123413085935	641.3494262695312	1136.202270507813	-585.4999389648435	592.40869140625	1135.182250976563	-524.2309570312498	726.6341552734375	950.4327392578126	-585.315246582031	758.0979614257812	885.4257812500001	-539.0490722656248	703.3760986328125	870.5394897460939	-595.7049560546873	771.12353515625	802.8599243164064	-588.3937377929685	721.240478515625	1066.201416015625	-118.3133392333982	586.78955078125	1042.307495117188	-285.5886230468748	700.3395385742188	1065.832641601562	-461.5037841796873	660.510498046875	928.3077392578125	-105.3903045654295	627.6145629882812	654.9989624023438	-134.791793823242	686.41943359375	657.0707397460938	-131.1336364746092	665.74462890625	558.6675415039062	-169.6909179687499	604.3147583007812	578.8377685546875	-158.7894744873045	534.865234375	351.9092712402344	-169.8243560791015	586.5752563476562	324.0517578125001	-185.5564575195312	568.6412963867188	242.9170227050782	-209.4622497558593	506.8695983886719	258.2032775878907	-199.0294494628906	436.3103332519531	61.95003128051764	-297.7158813476562	591.8643798828125	18.82609748840337	-205.1658782958984	653.9801025390625	30.63087654113776	-303.4815368652344	681.4192504882812	950.4848632812501	-471.8968505859373	874.6011352539062	701.7296752929689	-460.9909057617186	818.4505004882812	699.7307128906251	-480.6133422851561	841.9434814453125	598.7186889648439	-452.8912658691405	898.7562255859375	625.6963500976564	-440.5187988281249	890.3307495117188	345.8718566894532	-444.7705078124999	833.2606201171875	324.6249389648439	-447.8096618652343	829.5048828125	238.6182556152345	-433.4255676269531	892.7583618164062	244.6043701171876	-423.8669128417968	791.0213623046875	48.24032974243172	-362.9578247070312	966.4086303710938	29.41087532043467	-430.3942565917969	999.8363647460938	43.74133300781258	-336.5381469726562	
136	0.54	846.6651000976562	1734.712890625	-271.5715942382809	789.017822265625	1679.424926757812	-196.7359161376949	787.7689208984375	1690.676879882812	-344.1105651855465	652.5069580078125	1515.3515625	-277.0404357910153	581.3189697265625	1319.074584960938	-208.6542663574216	573.8932495117188	1322.956176757812	-346.3851928710935	827.1919555664062	1351.439086914062	-291.5648803710935	736.2235717773438	1462.888549804688	-111.835899353027	712.6553344726562	1301.223999023438	-21.54626846313448	779.434326171875	1219.465942382812	-30.39295005798313	660.655029296875	1213.821411132812	-3.000792026519506	716.5825805664062	1110.206787109375	-7.287386894225827	678.6439208984375	1105.534545898438	-82.97121429443335	863.9310913085938	965.7467651367188	-51.66336441040018	910.1165161132812	921.6058959960938	-107.6259155273436	864.16552734375	872.0552368164062	-62.00249862670879	955.1087646484375	836.0877075195312	-72.51393890380841	719.1535034179688	1475.555541992188	-450.0683898925778	670.4804077148438	1314.804809570313	-548.4307861328122	721.9391479492188	1227.615600585938	-558.8280639648435	599.1549682617188	1245.442749023438	-567.9567871093748	644.2244873046875	1135.947875976563	-586.0732421874998	597.4210205078125	1134.1162109375	-523.4325561523435	731.726806640625	949.1619873046876	-585.433410644531	763.3660888671875	884.3270874023439	-539.203186035156	708.3005981445312	869.4060058593751	-595.4985351562498	775.8922729492188	801.7705688476564	-588.7310791015623	726.626220703125	1065.21484375	-118.2304306030271	592.0897827148438	1041.40625	-286.090637207031	705.86279296875	1064.7138671875	-461.7228698730466	665.3561401367188	927.8301391601562	-105.6705932617186	631.287841796875	654.7494506835938	-135.1087188720702	690.1157836914062	656.6117553710938	-131.4850769042967	669.2567138671875	558.363037109375	-169.7902832031249	607.8934936523438	578.8238525390625	-159.0578613281249	537.02490234375	352.3641052246094	-169.954864501953	588.475830078125	323.8846740722657	-185.7855072021484	570.0081176757812	242.6231231689454	-209.8906249999999	508.240966796875	258.5333862304688	-199.2471771240234	436.6421203613281	62.67475509643561	-298.002197265625	591.7720336914062	18.86642074584966	-205.3271942138672	654.1411743164062	30.50434684753425	-303.3667297363281	687.0008544921875	949.3621215820314	-472.0356750488279	879.8001098632812	701.1849365234376	-461.3639831542967	823.5907592773438	698.9834594726564	-480.0667114257811	846.7649536132812	597.6920166015626	-452.0697326660155	903.8072509765625	624.4744873046876	-440.3337097167968	900.2011108398438	345.3487854003907	-443.9142761230468	843.7526245117188	322.8511047363282	-447.0373535156249	842.5335693359375	236.7962646484376	-433.0437011718749	905.390625	244.4141540527345	-423.4317626953124	808.7467041015625	45.6378707885743	-363.0977478027344	984.6810913085938	30.06139755249033	-430.0841674804688	1017.745666503906	44.67969894409188	-336.0716857910156	
137	0.544	852.489013671875	1733.639038085938	-271.8796081542965	794.9271240234375	1678.3154296875	-197.0554199218746	793.5679321289062	1689.703857421875	-344.6992492675777	658.357177734375	1514.280883789062	-277.228607177734	587.0810546875	1318.347778320312	-208.8533782958982	579.3999633789062	1322.0400390625	-346.3389892578122	832.7963256835938	1350.281372070312	-291.9577636718747	742.256591796875	1461.78076171875	-112.0596237182614	719.110595703125	1300.405883789062	-21.87160110473604	785.8875122070312	1218.562622070312	-30.95511245727512	667.2620849609375	1212.7978515625	-2.947261333465307	723.4464111328125	1109.131958007812	-7.53169679641699	685.5155029296875	1104.456176757812	-83.24446105957007	870.9497680664062	965.2880859375	-52.16759490966776	917.1458740234375	921.3914184570312	-108.4952163696287	871.5498046875	871.6253662109375	-62.69005584716778	962.6824951171875	836.001708984375	-73.38541412353497	724.7197265625	1474.3408203125	-450.4874877929684	675.8943481445312	1313.644409179688	-548.4804687499997	727.3619995117188	1226.480346679688	-558.9555664062498	604.4570922851562	1244.504272460938	-567.8398437499998	651.3925170898438	1133.846801757813	-585.064758300781	602.947998046875	1132.71533203125	-523.641418457031	736.61474609375	948.0075073242189	-585.2830810546873	768.3876953125	883.1532592773439	-539.1135253906248	713.157958984375	868.1420288085939	-595.3355712890623	781.0244140625	800.4788208007814	-588.8942871093748	732.2584838867188	1064.056518554688	-118.175468444824	597.5218505859375	1040.451416015625	-286.5277099609373	711.4603881835938	1063.684814453125	-461.7759094238279	670.2564086914062	927.4181518554688	-105.8560638427732	635.1375732421875	654.5179443359375	-135.4551849365233	693.8336791992188	656.4752197265625	-131.8299102783202	672.8485107421875	558.0062866210938	-169.6864471435546	611.4802856445312	578.7642822265625	-159.1424255371092	538.9957885742188	352.4476928710938	-170.228057861328	590.2949829101562	323.8080444335938	-185.9400024414062	571.4674682617188	242.9654998779297	-209.9042205810546	509.8424072265625	259.0082702636719	-199.4765167236328	436.9534606933594	63.50283813476569	-298.20263671875	591.7330932617188	18.88833999633794	-205.4439392089844	654.3243408203125	30.49751472473151	-303.340576171875	692.5621948242188	948.1394653320314	-472.2552795410154	884.550537109375	699.9860229492189	-461.4966430664061	828.4810791015625	697.6849975585939	-479.5960693359373	851.58642578125	596.6080322265626	-451.5292968749999	908.6591796875	623.1902465820314	-439.7601928710936	910.1187133789062	345.2298889160157	-443.5184020996093	854.2725830078125	321.0802307128907	-446.3984069824218	855.4895629882812	234.4715423583985	-431.6239624023437	918.133056640625	244.1726684570313	-424.1452331542968	826.5206298828125	43.36701583862313	-363.4086608886719	1002.782897949219	30.81830978393564	-429.6124877929688	1035.370483398438	45.75566482543952	-335.5744934082031	
138	0.548	858.3008422851562	1732.599365234375	-272.1665039062496	800.82080078125	1677.35205078125	-197.4395599365231	799.6238403320312	1688.541381835938	-344.8725891113277	664.076904296875	1513.376953125	-277.6101379394528	592.5010375976562	1317.642822265625	-208.8925933837888	584.9486694335938	1321.11376953125	-346.2138061523435	838.357666015625	1349.011596679688	-292.0255126953122	748.2306518554688	1460.878173828125	-112.3317565917965	725.5642700195312	1299.402221679688	-22.07444763183565	792.4730224609375	1217.706787109375	-31.40010643005344	673.8770141601562	1211.80078125	-2.850802659988134	730.3253173828125	1108.154296875	-7.483461856841795	691.6796875	1103.489624023438	-83.14900207519507	878.1461181640625	964.7308959960938	-52.77979660034158	924.0648193359375	921.0130004882812	-109.3287429809568	878.962646484375	871.1270141601562	-63.26272583007793	970.1183471679688	835.8302001953125	-74.22605133056622	730.4879760742188	1473.258911132812	-450.6492919921872	681.1558227539062	1312.533203125	-548.4197998046872	732.4617309570312	1225.1669921875	-558.9474487304685	609.614990234375	1243.342895507813	-567.6340332031248	656.5481567382812	1132.746459960938	-584.8430175781248	608.2149047851562	1131.608154296875	-523.2811889648435	741.7891845703125	946.8114013671876	-585.2071533203123	773.7357177734375	881.9783935546876	-539.2415771484373	718.2256469726562	866.9201049804689	-595.389953613281	786.0325927734375	799.3436889648439	-588.8081054687498	736.7767333984375	1062.9443359375	-118.2804107666013	602.8811645507812	1039.517578125	-286.7203674316404	716.7498168945312	1062.529663085938	-462.1415710449216	675.121337890625	926.8622436523438	-106.2139892578123	639.0245971679688	654.3419189453125	-135.8278503417967	697.7073974609375	656.043701171875	-132.1890411376952	676.46484375	557.6177978515625	-169.7630767822264	615.1304321289062	578.4891357421875	-159.487335205078	541.1082763671875	352.7218933105469	-170.5696411132812	592.2972412109375	323.8335571289063	-186.0222625732421	572.8486938476562	243.1102294921876	-210.0051269531249	511.3099060058594	259.4745483398438	-199.8011474609374	437.2594909667969	64.45023345947273	-298.5825805664062	591.6346435546875	18.94402694702153	-205.6199951171875	654.5143432617188	30.46702194213874	-303.335693359375	697.9390258789062	946.9517822265626	-472.4949951171873	889.6886596679688	698.5266113281251	-461.2987365722655	833.3668212890625	696.2626953125001	-479.3164978027342	856.4613647460938	595.1702270507814	-450.8494262695311	913.41064453125	621.8547973632814	-439.4472656249999	920.1961669921875	344.9909973144532	-442.7324829101562	864.9465942382812	319.3818969726564	-445.8575439453124	868.4348754882812	232.8198394775391	-430.6217956542968	930.6011352539062	244.4580993652345	-423.9293518066406	844.29931640625	41.36214447021492	-362.34375	1020.605041503906	31.7099437713624	-429.1410827636719	1052.881469726562	46.93051528930671	-335.0394287109375	
